# xmcd
#
# Track frame offsets:
#	150
#	20000
#	38830
#	58875
#	77890
#	96683
#	107053
#	125578
#	148388
#	168775
#	181993
#	203935
#
# Disc length: 3080 seconds
#
# Revision: 1
# Processed by: cddbd v1.5.1PL0 Copyright (c) Steve Scherf et al.
# Submitted via: CDex 1.50Beta5
#
DISCID=b40c060c
DTITLE=美輪明宏 - 《愛》を歌う〜美輪明宏
DYEAR=2001
DGENRE=Pop
TTITLE0=うす紫
TTITLE1=めぐり逢い
TTITLE2=長崎育ち
TTITLE3=別れの子守唄
TTITLE4=砂漠の青春
TTITLE5=僕と日曜日
TTITLE6=孤独
TTITLE7=別れ話
TTITLE8=あきれたあんた
TTITLE9=眼を閉じて
TTITLE10=いとしの銀巴里
TTITLE11=ヨイトマケの唄
EXTD=
EXTT0=
EXTT1=
EXTT2=
EXTT3=
EXTT4=
EXTT5=
EXTT6=
EXTT7=
EXTT8=
EXTT9=
EXTT10=
EXTT11=
PLAYORDER=
